<?xml version="1.0" standalone="no"?>
<!DOCTYPE svg PUBLIC "-//W3C//DTD SVG 20010904//EN"
 "http://www.w3.org/TR/2001/REC-SVG-20010904/DTD/svg10.dtd">
<svg version="1.0" xmlns="http://www.w3.org/2000/svg"
 width="512.000000pt" height="512.000000pt" viewBox="0 0 512.000000 512.000000"
 preserveAspectRatio="xMidYMid meet">
<metadata>
Created by potrace 1.14, written by Peter Selinger 2001-2017
</metadata>
<g transform="translate(0.000000,512.000000) scale(0.100000,-0.100000)"
fill="#000000" stroke="none">
<path d="M4414 4698 c-5 -8 -1 -9 12 -4 14 5 16 4 8 -4 -9 -9 -17 -9 -34 0
-15 8 -20 8 -16 1 4 -6 2 -19 -3 -28 -6 -10 -11 -12 -11 -5 0 10 -4 10 -19 0
-11 -7 -17 -17 -13 -23 3 -5 -1 -4 -10 2 -8 7 -19 9 -23 5 -5 -4 -5 -1 -1 6 5
7 10 11 13 8 3 -3 15 0 27 6 11 7 26 11 31 9 6 -1 7 1 2 5 -12 12 -46 12 -44
0 1 -6 -3 -10 -10 -9 -6 1 -17 -5 -24 -13 -10 -13 -10 -17 2 -26 11 -8 10 -9
-5 -4 -14 5 -17 2 -12 -9 3 -10 2 -13 -5 -10 -6 4 -8 13 -5 21 3 7 1 16 -4 19
-6 4 -10 0 -10 -9 0 -17 -32 -15 -38 2 -2 7 -8 9 -13 6 -6 -3 -2 -12 8 -19 15
-12 16 -16 4 -27 -8 -8 -11 -8 -7 -1 3 6 2 14 -3 17 -5 4 -8 -6 -6 -21 2 -23
1 -25 -9 -11 -17 24 -38 26 -41 6 -2 -10 2 -18 8 -18 5 0 8 -2 5 -5 -9 -9 -38
7 -32 17 4 6 1 8 -7 6 -8 -3 -12 -13 -11 -23 3 -17 2 -17 -14 -4 -11 8 -15 9
-10 2 4 -7 3 -13 -3 -13 -5 0 -15 8 -20 18 -10 16 -10 16 -11 0 0 -9 8 -21 17
-27 14 -7 13 -9 -9 -8 -14 1 -24 5 -21 10 2 4 -1 7 -7 7 -6 0 -8 5 -4 12 4 6
3 8 -3 5 -5 -3 -8 -20 -7 -36 1 -17 -2 -28 -7 -25 -5 3 -7 9 -4 14 3 4 -2 10
-9 13 -10 4 -14 0 -11 -13 3 -13 -1 -17 -11 -13 -7 3 -12 9 -9 13 8 14 -24 5
-38 -10 -10 -12 -9 -12 6 -1 9 8 17 9 17 3 0 -10 -23 -22 -41 -22 -6 0 -7 6
-3 13 4 6 -1 4 -12 -5 -14 -12 -24 -14 -31 -7 -7 7 -14 4 -24 -7 -9 -12 -10
-15 -1 -10 6 4 12 2 12 -3 0 -6 -5 -11 -11 -11 -5 0 -7 -4 -4 -10 3 -6 -1 -7
-9 -4 -10 4 -16 1 -16 -7 0 -7 -3 -9 -6 -6 -4 4 -1 13 6 22 8 10 9 15 1 15 -6
0 -11 -5 -11 -11 0 -8 -5 -7 -16 1 -12 11 -15 11 -12 0 2 -7 -3 -15 -11 -18
-9 -3 -11 0 -6 8 5 9 4 11 -3 6 -7 -4 -12 -14 -12 -22 0 -8 5 -12 10 -9 6 3
10 1 10 -4 0 -16 -11 -13 -33 7 -11 9 -17 12 -14 5 16 -26 -3 -40 -51 -38 -26
1 -42 0 -35 -2 10 -4 10 -7 0 -17 -13 -15 -40 -9 -31 6 3 5 -10 -1 -29 -13
-19 -13 -34 -26 -32 -29 2 -3 -4 -11 -14 -17 -14 -9 -18 -8 -18 3 0 7 4 11 9
8 4 -3 8 0 8 5 0 6 -10 9 -22 7 -13 -3 -27 -5 -32 -5 -4 -1 -6 -10 -3 -21 3
-11 1 -18 -3 -15 -5 3 -12 0 -15 -5 -5 -8 -14 -5 -27 7 -11 9 -19 13 -18 8 5
-22 -1 -27 -15 -15 -19 16 -33 4 -15 -13 10 -10 11 -9 5 2 -5 10 -4 12 4 7 16
-11 3 -26 -16 -19 -11 4 -14 3 -9 -5 4 -7 2 -12 -3 -12 -6 0 -11 8 -12 18 0
14 -2 14 -8 -3 -5 -11 -6 -24 -4 -28 3 -5 -8 -2 -24 7 -25 12 -30 12 -30 1 0
-8 5 -11 11 -8 6 3 5 0 -2 -8 -11 -12 -14 -12 -22 1 -8 12 -10 12 -10 1 0 -8
-6 -11 -16 -7 -8 3 -12 2 -9 -4 3 -6 1 -10 -5 -10 -6 0 -9 -4 -5 -9 3 -5 0
-13 -6 -17 -7 -4 -9 -3 -5 4 4 7 -6 10 -30 9 -31 -2 -38 -7 -39 -25 -2 -29
-15 -41 -15 -14 0 26 -9 28 -36 6 -10 -8 -13 -12 -5 -8 10 5 12 3 7 -5 -6 -9
-11 -9 -21 -1 -17 14 -27 -1 -19 -27 5 -15 4 -15 -5 -3 -6 8 -11 11 -11 7 0
-4 -10 -2 -22 4 -21 11 -22 11 -9 -5 8 -9 11 -19 7 -23 -3 -3 -6 -1 -6 5 0 7
-7 12 -16 12 -8 0 -13 4 -9 9 3 5 0 13 -6 17 -7 4 -9 3 -5 -4 3 -6 2 -13 -4
-17 -5 -3 -10 -12 -10 -18 0 -7 4 -6 10 3 5 8 10 10 10 4 0 -12 -29 -41 -31
-30 -1 3 -2 10 -3 15 -2 19 -14 21 -27 4 -12 -15 -12 -16 1 -8 12 6 13 6 2 -6
-10 -11 -14 -11 -21 -1 -6 10 -11 10 -21 -3 -12 -14 -11 -18 1 -25 10 -7 5 -9
-16 -7 -17 1 -30 -3 -30 -10 0 -6 -4 -15 -9 -20 -5 -5 -6 -3 -2 5 4 7 2 12 -5
12 -8 0 -5 7 6 20 10 11 22 17 28 13 6 -3 7 -1 3 5 -11 18 -66 -26 -60 -47 3
-9 -1 -5 -9 8 -12 20 -15 21 -21 6 -3 -10 -12 -15 -21 -11 -13 4 -12 1 2 -22
9 -15 11 -22 4 -15 -8 6 -21 9 -30 6 -10 -3 -12 -2 -5 4 9 6 8 11 -2 21 -11
10 -13 7 -10 -18 2 -16 -1 -30 -5 -30 -5 0 -9 7 -9 15 0 13 -2 14 -14 3 -8 -7
-12 -15 -11 -18 2 -3 0 -12 -6 -20 -6 -11 -9 -11 -10 -2 -1 6 -2 17 -3 24 0 6
-8 12 -17 13 -18 3 -21 -23 -5 -45 6 -8 1 -7 -11 3 -26 23 -46 14 -38 -16 5
-17 4 -19 -4 -7 -6 8 -11 11 -11 6 0 -5 -8 -2 -17 5 -15 12 -16 12 -11 -8 4
-15 2 -20 -8 -16 -7 2 -14 12 -16 20 -3 14 -5 13 -18 -2 -8 -11 -10 -16 -3
-11 9 5 11 2 7 -9 -7 -17 -30 -14 -26 4 1 6 -3 11 -9 11 -6 0 -9 -7 -5 -15 7
-18 -10 -20 -18 -2 -4 6 -5 3 -2 -9 2 -12 -2 -21 -9 -21 -7 0 -11 6 -8 13 6
16 -14 27 -23 13 -4 -7 -3 -9 3 -6 7 4 10 -2 9 -16 0 -13 -7 -24 -14 -24 -7 0
-10 7 -8 14 4 9 2 11 -7 6 -6 -4 -19 -8 -27 -9 -28 -2 -49 -16 -44 -29 3 -7 0
-16 -6 -20 -6 -3 -9 -1 -8 6 2 6 -3 14 -11 17 -9 3 -11 0 -6 -8 6 -10 4 -12
-8 -7 -9 3 -19 2 -22 -3 -4 -7 -13 -7 -24 -1 -12 7 -18 6 -18 -2 0 -7 13 -12
28 -12 15 -1 25 3 22 9 -4 5 -1 6 6 2 7 -5 10 -11 6 -14 -10 -10 -75 -12 -75
-2 0 6 -4 10 -8 10 -4 0 -8 -9 -8 -20 0 -11 5 -20 10 -20 5 0 6 -3 3 -6 -11
-12 -36 17 -30 34 4 13 2 13 -9 -2 -8 -11 -22 -17 -30 -14 -8 4 -15 0 -15 -8
0 -7 4 -11 9 -8 4 3 8 3 8 0 0 -3 -10 -10 -21 -17 -17 -9 -20 -8 -14 3 5 7 5
10 0 6 -4 -4 -15 -2 -24 5 -14 11 -15 10 -1 -7 14 -18 13 -19 -3 -13 -11 4
-16 3 -12 -3 3 -6 -5 -10 -19 -10 -27 0 -44 -16 -24 -22 9 -3 9 -6 0 -12 -7
-4 -12 -2 -12 3 0 6 -7 11 -15 11 -8 0 -15 -4 -15 -10 0 -5 -5 -10 -11 -10 -6
0 -8 9 -4 23 5 20 5 20 -9 -3 -9 -14 -16 -20 -16 -15 -1 6 -7 -3 -15 -20 -7
-16 -14 -24 -14 -16 -1 11 -4 11 -16 1 -13 -10 -18 -11 -28 -1 -9 10 -8 11 8
6 16 -5 17 -5 5 3 -17 13 -33 5 -24 -10 5 -8 1 -9 -11 -4 -15 5 -16 4 -5 -9
11 -13 11 -16 -1 -13 -8 2 -20 12 -27 23 -11 19 -12 18 -6 -6 3 -16 1 -30 -7
-34 -8 -5 -10 -4 -5 3 13 22 -21 12 -38 -10 -9 -13 -15 -18 -13 -13 3 6 -2 17
-11 25 -14 13 -15 12 -9 -4 6 -14 4 -17 -9 -12 -14 5 -15 4 -5 -8 16 -19 -6
-34 -22 -16 -9 10 -9 11 3 5 12 -7 13 -6 2 6 -9 10 -15 10 -20 3 -4 -6 -16
-10 -28 -9 -11 1 -21 -4 -21 -11 0 -10 5 -10 21 -2 19 10 20 10 7 -6 -9 -11
-24 -16 -38 -13 -21 4 -28 -3 -24 -25 2 -15 -17 -8 -23 8 -4 10 -2 13 6 8 7
-4 8 -3 4 4 -5 9 -13 9 -27 2 -10 -6 -19 -13 -19 -16 0 -3 4 -3 9 0 11 7 8
-21 -4 -31 -4 -5 -5 -2 0 6 6 11 4 13 -9 8 -10 -4 -20 -7 -22 -7 -3 0 -3 -4 1
-9 3 -5 1 -12 -4 -15 -10 -7 -9 20 2 30 4 4 7 12 7 18 0 5 -6 2 -14 -9 -9 -12
-20 -16 -35 -12 -18 4 -20 3 -10 -9 9 -12 6 -14 -20 -14 -17 0 -33 1 -35 3 -2
1 -13 -6 -24 -16 -15 -14 -21 -15 -26 -5 -3 7 -3 0 1 -17 5 -29 5 -29 -12 -10
-9 11 -14 14 -10 8 8 -16 0 -16 -27 -2 -12 7 -18 7 -14 1 3 -6 1 -12 -4 -14
-6 -2 -12 -12 -12 -23 -2 -15 -10 -21 -31 -22 -21 0 -26 2 -18 10 6 6 11 16
11 22 0 5 -5 2 -11 -8 -6 -9 -15 -14 -21 -11 -7 4 -8 2 -4 -4 6 -11 0 -14 -21
-11 -5 1 -7 5 -6 10 5 15 -14 10 -20 -5 -3 -7 0 -19 6 -25 9 -10 9 -12 -3 -9
-8 2 -14 -3 -12 -10 1 -8 -2 -11 -8 -7 -6 4 -9 13 -6 21 3 8 0 11 -8 8 -8 -3
-12 -14 -9 -27 4 -18 3 -19 -6 -7 -6 8 -11 11 -11 7 0 -4 -9 -3 -19 3 -14 7
-22 7 -27 -2 -4 -7 -3 -8 4 -4 7 4 12 2 12 -4 0 -13 -42 -9 -53 5 -4 6 -5 -3
-2 -20 6 -27 5 -28 -8 -12 -14 16 -15 16 -28 0 -12 -15 -12 -16 1 -8 12 7 13
6 3 -7 -7 -8 -9 -18 -5 -23 4 -4 -3 -2 -15 6 -16 10 -19 16 -11 26 7 9 7 13
-1 13 -6 0 -11 -5 -11 -11 0 -5 -5 -7 -11 -3 -8 5 -8 1 0 -14 8 -15 7 -21 -4
-25 -9 -4 -12 -1 -8 9 3 9 0 14 -8 12 -8 -2 -13 3 -11 10 1 8 -2 11 -8 7 -6
-3 -7 -12 -3 -18 9 -15 14 -41 6 -33 -4 3 -12 1 -20 -5 -7 -6 -13 -8 -13 -5 0
4 -10 0 -22 -8 -17 -12 -25 -13 -37 -3 -12 10 -14 9 -8 -6 6 -16 5 -16 -21 0
-15 9 -22 11 -15 3 10 -11 9 -16 -5 -26 -23 -18 -37 -17 -22 1 11 13 10 14 -4
9 -9 -3 -16 -10 -16 -15 0 -5 -8 -9 -17 -9 -15 0 -16 2 -3 10 8 5 11 10 5 10
-13 -1 -55 -36 -55 -46 0 -4 10 1 22 12 14 12 18 13 10 3 -6 -9 -10 -18 -7
-20 2 -3 -6 -5 -20 -5 -13 0 -22 3 -19 7 2 4 -1 11 -7 15 -7 4 -9 3 -6 -2 3
-6 2 -16 -4 -24 -7 -13 -9 -12 -9 1 0 9 -6 19 -13 22 -9 3 -12 -4 -11 -24 1
-15 -1 -28 -5 -27 -24 3 -41 -4 -35 -14 4 -7 3 -8 -5 -4 -9 6 -9 11 0 22 6 7
15 11 20 8 5 -3 9 0 9 5 0 14 -17 14 -25 1 -3 -5 -11 -10 -16 -10 -6 0 -7 5
-3 12 5 7 3 8 -5 4 -7 -5 -10 -14 -8 -21 4 -8 -3 -12 -16 -11 -13 1 -21 -4
-20 -11 2 -7 -2 -13 -8 -13 -5 0 -7 -5 -3 -11 4 -8 -1 -9 -17 -4 -17 4 -20 3
-10 -3 11 -8 10 -12 -8 -21 -11 -7 -21 -20 -21 -30 0 -10 -6 -24 -14 -31 -15
-12 -11 -44 5 -34 5 3 6 -2 3 -10 -3 -9 -10 -13 -15 -10 -5 3 -6 -2 -3 -10 3
-9 11 -13 16 -10 6 4 4 -4 -3 -17 -11 -22 -11 -23 5 -10 14 12 16 12 10 -4 -6
-14 -4 -16 7 -10 11 6 12 5 2 -5 -18 -19 1 -50 27 -43 14 4 20 0 20 -10 0 -9
9 -19 20 -22 11 -4 17 -11 14 -17 -5 -7 -2 -8 6 -3 10 6 7 13 -11 28 l-24 19
26 -15 c20 -12 29 -13 39 -4 9 9 11 9 6 0 -3 -6 0 -13 6 -16 10 -4 11 -7 0
-18 -10 -11 -12 -10 -12 6 0 10 -3 16 -6 12 -4 -3 -4 -13 -1 -21 7 -19 37 -10
37 10 0 8 5 14 11 14 5 0 8 -4 5 -9 -11 -17 5 -39 24 -34 10 3 21 -1 25 -8 5
-7 4 -10 -3 -5 -6 3 -13 3 -16 -2 -3 -5 17 -7 45 -6 42 1 48 -1 38 -12 -7 -8
-9 -17 -5 -21 3 -3 6 -1 6 5 0 7 8 12 18 12 14 0 15 -2 2 -10 -13 -8 -12 -10
3 -10 12 0 16 -4 11 -12 -5 -8 -2 -8 10 1 15 12 17 12 14 0 -2 -8 3 -13 11
-11 7 1 19 -3 27 -9 10 -8 14 -8 14 0 0 6 -4 11 -10 11 -5 0 -10 6 -10 13 1 6
9 2 19 -10 11 -13 24 -23 30 -23 5 0 17 -10 25 -22 9 -12 16 -17 16 -10 0 6 7
12 16 12 9 0 12 5 8 13 -5 8 -2 8 9 -2 9 -7 17 -22 17 -32 0 -11 5 -19 10 -19
6 0 10 -5 10 -11 0 -5 -4 -7 -10 -4 -6 3 -7 -1 -4 -10 7 -17 -15 -17 -29 0 -5
6 -7 0 -4 -12 5 -22 2 -25 -25 -27 -7 -1 -16 -5 -19 -9 -3 -5 -9 -1 -12 8 -5
11 -3 14 6 9 6 -4 8 -3 4 1 -13 14 -34 14 -34 -1 0 -7 5 -10 11 -7 6 4 5 -1
-3 -10 -15 -18 -26 -23 -16 -7 10 17 -6 11 -23 -8 -10 -10 -13 -11 -7 -4 8 12
5 14 -15 7 -14 -4 -27 -12 -28 -17 -2 -5 -11 -3 -20 4 -14 12 -14 10 -3 -11
10 -17 10 -26 1 -35 -8 -8 -9 -6 -4 8 6 15 4 17 -6 11 -9 -6 -11 -4 -5 4 6 10
3 11 -12 2 -11 -6 -24 -7 -29 -3 -5 4 -3 0 4 -10 11 -13 10 -18 0 -24 -7 -4
-10 -4 -6 1 4 4 1 14 -7 21 -16 16 -29 19 -20 4 3 -5 -1 -10 -10 -10 -9 0 -13
-5 -10 -10 4 -6 11 -8 16 -5 5 3 6 -1 2 -10 -5 -13 -7 -14 -14 -3 -7 10 -12
11 -29 0 -25 -15 -54 -16 -44 0 4 7 3 8 -5 4 -9 -6 -9 -11 1 -24 11 -13 11
-14 -8 -4 -16 8 -26 8 -41 -3 -11 -8 -24 -11 -28 -7 -5 4 -5 1 -1 -5 5 -10 13
-9 32 3 15 10 24 12 24 5 0 -6 -5 -11 -11 -11 -5 0 -7 -5 -3 -12 4 -7 3 -8 -5
-4 -6 4 -19 2 -28 -6 -11 -8 -14 -8 -10 -1 5 8 1 11 -11 10 -10 0 -19 -7 -19
-14 0 -6 4 -10 9 -7 15 10 8 -14 -9 -27 -14 -12 -16 -12 -9 0 15 24 -16 7 -33
-19 -12 -18 -13 -22 -2 -16 10 7 12 5 7 -3 -5 -7 -14 -10 -20 -8 -9 4 -11 -3
-8 -19 2 -13 8 -24 14 -24 5 0 4 -9 -2 -20 -9 -17 -8 -20 7 -20 15 0 16 -2 3
-10 -14 -9 -7 -14 13 -11 5 1 6 -3 3 -8 -3 -5 -3 -23 0 -41 5 -23 9 -28 16
-18 7 9 8 7 5 -10 -3 -12 -1 -20 3 -17 5 3 13 -3 19 -12 6 -10 11 -12 11 -5 0
6 4 12 10 12 5 0 9 -3 9 -7 -1 -5 -1 -15 0 -23 1 -13 3 -13 10 -1 5 8 7 20 4
28 -3 7 0 13 6 13 6 0 10 -3 10 -7 -3 -19 3 -47 8 -36 3 10 7 10 18 0 7 -7 11
-16 8 -22 -2 -5 6 1 18 15 14 16 20 19 16 8 -4 -10 -10 -26 -13 -35 -5 -17 -5
-17 6 0 6 9 15 15 20 12 5 -3 11 -1 15 5 3 5 12 10 18 10 8 0 8 -3 -2 -9 -9
-6 -10 -11 -2 -15 6 -4 11 -4 11 -1 0 3 6 0 14 -7 8 -7 12 -16 10 -19 -2 -4 3
-9 10 -12 10 -4 14 0 11 13 -2 11 1 23 7 26 7 5 8 2 3 -6 -5 -8 -3 -11 6 -8 8
3 22 -2 32 -10 21 -18 47 -24 47 -11 0 5 9 4 20 -3 11 -7 20 -17 20 -22 0 -4
-6 -4 -13 2 -7 6 -22 9 -32 7 -11 -2 -22 -4 -25 -4 -2 -1 2 -7 8 -13 10 -10
15 -10 22 1 6 11 12 12 22 3 11 -9 18 -9 28 1 10 9 11 9 6 0 -4 -7 -2 -13 5
-13 6 0 18 -8 26 -17 13 -16 14 -16 9 -1 -2 9 2 22 10 28 9 8 14 9 14 2 0 -6
-6 -13 -12 -15 -7 -3 -2 -6 11 -6 15 -1 21 -6 18 -14 -3 -9 6 -13 29 -14 19 0
32 3 29 7 -2 3 2 7 9 7 7 0 13 -6 13 -13 0 -7 -5 -10 -10 -7 -6 3 -7 1 -3 -6
6 -9 11 -9 21 -1 9 8 15 8 20 0 3 -6 10 -8 15 -5 5 3 11 1 15 -4 3 -5 14 -8
25 -6 18 3 25 -5 21 -27 0 -5 11 -8 25 -8 18 0 24 -4 21 -13 -3 -8 1 -14 8
-14 7 0 11 6 8 14 -3 7 0 13 5 13 6 0 13 -8 15 -17 4 -17 5 -17 6 0 0 9 5 17
11 17 13 0 31 -36 22 -46 -4 -5 2 -1 14 9 19 16 22 16 34 2 11 -13 15 -13 22
-3 7 9 8 6 5 -9 -3 -12 -2 -22 2 -21 11 2 46 -15 53 -26 4 -6 8 -1 8 13 0 17
4 22 16 17 9 -3 18 -6 20 -6 2 0 4 -5 4 -11 0 -8 -6 -7 -17 2 -16 13 -17 12
-4 -4 11 -14 17 -15 28 -5 11 9 13 8 11 -3 -2 -8 3 -13 10 -11 7 1 12 -5 10
-14 -2 -9 4 -18 13 -19 9 -2 16 3 16 11 0 7 -3 11 -7 9 -4 -2 -7 2 -7 9 0 8 6
12 14 9 7 -3 13 -9 13 -14 0 -5 5 -9 12 -9 7 0 23 -12 36 -27 18 -22 21 -23
13 -6 -6 12 -8 24 -3 27 8 4 43 -18 39 -25 -1 -2 2 -1 7 3 11 8 36 -1 36 -14
0 -6 -5 -7 -13 -2 -7 5 -5 2 5 -7 9 -9 14 -20 10 -25 -4 -5 2 -2 12 6 16 13
20 13 24 1 3 -10 9 -7 19 10 8 13 12 17 10 9 -2 -8 15 -33 37 -54 23 -22 35
-36 29 -32 -21 12 -15 -5 9 -25 11 -11 17 -19 12 -19 -6 0 -16 6 -23 13 -7 6
-4 -3 7 -22 12 -19 19 -38 16 -43 -3 -4 3 -5 12 -1 12 4 15 3 10 -6 -4 -6 -1
-22 7 -35 12 -18 13 -26 4 -36 -8 -9 -8 -11 -1 -7 7 4 18 -1 25 -10 12 -15 12
-16 -3 -10 -12 4 -15 2 -11 -9 3 -7 9 -14 14 -14 5 0 9 -9 9 -21 0 -13 4 -18
13 -13 8 5 8 2 -2 -9 -11 -13 -11 -17 -1 -17 8 0 10 -3 7 -7 -4 -3 1 -12 11
-20 16 -14 16 -14 -3 -8 -16 5 -14 0 10 -26 17 -18 24 -29 18 -25 -7 4 -13 2
-13 -3 0 -6 3 -11 8 -11 4 0 13 -10 21 -21 11 -19 11 -21 -3 -16 -10 4 -13 1
-9 -8 3 -8 8 -13 12 -11 4 3 13 -5 21 -17 11 -19 11 -20 -1 -10 -12 10 -15 8
-15 -6 0 -11 6 -17 13 -14 15 6 18 -13 3 -22 -13 -8 -3 -25 13 -25 7 0 6 4 -3
11 -12 9 -13 10 0 7 8 -3 15 -17 16 -32 0 -15 7 -31 14 -36 10 -6 9 -9 -1 -13
-10 -4 -10 -6 2 -6 11 -1 15 -9 14 -26 -2 -14 1 -25 7 -25 6 0 8 -12 5 -26 -3
-19 -1 -24 10 -20 11 5 11 2 2 -17 -11 -20 -11 -21 5 -8 14 12 16 12 10 -4 -6
-14 -4 -16 7 -10 11 7 12 6 2 -6 -10 -12 -8 -17 8 -27 10 -7 19 -17 19 -24 0
-7 -7 -3 -16 8 -13 15 -13 14 1 -10 9 -15 15 -36 12 -46 -4 -14 0 -17 15 -15
16 4 18 2 8 -10 -7 -9 -8 -15 -2 -15 5 0 13 -7 16 -16 6 -15 4 -15 -10 -3 -16
13 -16 12 -5 -9 7 -13 17 -20 23 -16 7 5 9 1 5 -9 -4 -10 -2 -17 5 -17 7 0 7
-4 -1 -14 -8 -10 -9 -16 -1 -21 6 -3 8 -11 5 -16 -3 -5 1 -6 9 -3 11 4 16 0
16 -11 0 -10 -5 -14 -12 -10 -7 4 -6 1 2 -7 9 -7 14 -22 12 -33 -3 -17 -1 -18
8 -5 9 12 11 8 7 -17 -2 -24 0 -33 11 -33 8 0 12 -6 9 -15 -4 -8 -1 -17 5 -21
7 -5 8 -2 3 6 -5 9 -4 11 3 6 8 -5 9 -13 2 -25 -7 -14 -6 -18 8 -18 42 0 48
-3 32 -13 -13 -9 -13 -11 0 -19 9 -7 17 -6 21 0 3 6 9 2 11 -9 4 -16 2 -19
-11 -15 -14 4 -14 3 -1 -6 20 -15 27 -14 34 5 4 10 2 13 -7 8 -6 -4 -8 -3 -4
1 14 16 36 13 42 -5 3 -10 12 -24 20 -30 12 -10 15 -9 15 4 0 10 -5 14 -11 11
-6 -4 -5 2 3 14 7 12 14 17 16 11 2 -5 10 -10 17 -10 7 0 15 -5 17 -12 3 -7 7
-5 11 6 5 11 3 15 -5 10 -7 -4 -8 -3 -4 4 12 19 29 14 23 -7 -3 -14 -1 -18 9
-14 8 3 12 8 10 12 -3 4 0 13 5 21 7 12 11 13 18 2 7 -11 9 -10 14 3 4 9 3 13
-3 10 -6 -3 -10 -1 -10 5 0 6 11 15 24 20 22 8 24 12 16 40 -8 26 -7 30 5 20
11 -9 12 -7 8 9 -4 16 0 21 13 22 11 0 14 3 7 6 -7 2 -13 9 -13 14 0 6 5 7 10
4 6 -3 10 0 10 9 0 8 3 22 7 32 5 13 3 15 -7 9 -9 -5 -11 -4 -6 4 4 6 12 8 18
5 7 -5 9 2 6 19 -4 21 -2 25 16 22 20 -4 20 -3 3 9 -17 13 -16 14 2 19 17 4
19 9 11 36 -6 20 -5 33 2 37 7 4 8 2 4 -4 -4 -7 -2 -12 4 -12 6 0 8 -5 4 -12
-4 -7 -3 -8 4 -4 6 4 8 14 5 23 -4 11 -3 14 5 9 8 -5 10 -2 6 8 -3 9 -11 13
-18 9 -6 -4 -4 1 4 12 8 10 14 21 13 24 -1 3 1 8 4 11 4 3 3 0 -1 -7 -3 -6 -1
-15 6 -19 7 -4 10 -4 6 1 -4 4 -2 15 5 23 8 11 8 14 0 9 -6 -4 -14 -3 -18 3
-3 5 0 10 8 10 19 0 28 35 13 51 -8 9 -7 10 8 5 16 -5 17 -4 6 9 -15 18 0 20
20 3 12 -11 12 -10 3 2 -7 9 -8 21 -3 29 4 8 6 20 3 28 -3 7 0 13 7 13 6 0 8
-5 5 -10 -3 -6 -2 -10 4 -10 5 0 13 -9 16 -20 4 -11 11 -17 17 -14 7 4 8 2 4
-5 -4 -6 0 -23 9 -38 9 -14 12 -22 6 -19 -20 13 -11 -5 15 -29 14 -13 27 -36
30 -51 3 -16 11 -32 17 -36 9 -5 8 -8 -3 -8 -13 0 -13 -2 0 -9 8 -6 18 -7 23
-4 5 3 4 -5 -3 -17 -7 -12 -8 -20 -3 -17 4 3 14 -1 21 -9 8 -9 9 -14 2 -14 -7
0 -6 -5 2 -14 7 -8 18 -11 23 -8 6 3 4 -2 -3 -11 -12 -14 -10 -20 10 -40 13
-12 23 -32 23 -42 0 -11 9 -28 19 -37 14 -13 15 -18 5 -18 -9 0 -7 -5 6 -12
29 -17 45 -35 38 -42 -4 -3 3 -7 15 -7 12 -1 27 -2 32 -3 11 -1 12 -18 3 -26
-4 -3 -3 1 2 9 6 10 4 12 -4 6 -9 -5 -10 -10 -2 -18 7 -7 16 -3 29 12 17 22
19 22 32 5 9 -11 10 -15 3 -10 -8 4 -13 2 -13 -4 0 -8 7 -9 18 -5 9 4 23 8 29
9 19 3 63 48 57 57 -3 5 0 9 6 9 6 0 8 5 4 12 -4 7 -3 8 4 4 11 -6 17 6 13 27
-1 4 7 3 18 -2 15 -8 18 -7 18 7 0 36 4 49 19 68 15 18 15 18 5 -3 -16 -32
-13 -42 4 -13 9 16 10 29 4 37 -7 7 -6 14 2 19 8 4 9 3 5 -4 -5 -8 -1 -10 9
-5 13 4 14 8 4 14 -10 6 -9 12 5 27 17 19 17 21 -1 31 -17 10 -17 10 0 11 10
0 15 5 12 10 -3 6 -2 10 4 10 6 0 7 8 4 17 -5 12 -2 15 10 10 11 -4 14 -2 10
8 -3 8 -10 12 -16 8 -6 -4 -7 -1 -3 6 5 7 15 10 25 7 13 -5 13 -3 -2 8 -18 14
-18 14 2 21 12 3 21 11 21 16 0 6 -6 7 -12 3 -7 -4 -3 4 9 17 16 18 19 28 12
41 -7 13 -2 24 23 49 18 18 23 25 11 15 -21 -18 -22 -18 -20 2 0 11 5 18 9 16
8 -5 12 10 8 35 -1 8 4 12 14 8 10 -4 13 -1 9 9 -3 7 1 14 8 14 7 0 9 3 6 6
-4 4 -14 1 -24 -7 -15 -12 -15 -11 1 14 17 25 35 40 20 15 -4 -7 -3 -8 5 -4 7
5 8 13 2 24 -6 11 -4 20 7 30 10 7 11 11 5 7 -7 -3 -13 -2 -13 3 0 16 13 22
25 12 8 -7 11 -4 10 10 -1 11 -5 23 -10 27 -4 5 -5 3 -2 -3 3 -6 -1 -11 -9
-11 -11 0 -9 6 8 24 12 13 18 23 13 23 -4 0 0 9 9 19 13 15 14 20 4 24 -9 4
-8 6 4 6 12 1 15 7 11 24 -5 20 -4 21 8 4 13 -16 14 -16 14 7 0 16 -5 22 -15
19 -8 -2 -4 3 10 11 14 8 20 15 14 16 -6 0 -11 7 -11 15 0 11 4 12 13 4 9 -8
11 -5 7 12 -4 15 -3 20 5 15 7 -4 12 -2 12 3 0 6 -5 11 -11 11 -5 0 -7 5 -4
10 4 6 10 8 14 6 4 -3 8 1 8 9 0 8 -5 11 -10 8 -6 -4 -7 -1 -3 6 5 7 15 10 23
6 13 -4 14 -3 3 10 -9 11 -9 15 -1 15 9 0 9 5 0 21 -7 13 -7 19 -1 15 6 -3 13
-2 17 4 3 5 1 10 -5 10 -6 0 -9 4 -5 10 3 5 11 8 18 6 7 -1 9 -1 5 1 -5 3 -8
9 -8 14 0 6 6 7 13 3 9 -6 9 -4 -1 8 -10 13 -9 20 11 44 15 17 23 38 21 52 -3
14 2 25 11 28 12 5 13 10 4 20 -9 11 -8 14 1 14 7 0 10 7 6 16 -5 14 -4 15 9
4 14 -11 14 -10 6 13 -7 18 -7 28 1 33 6 4 8 3 5 -3 -3 -5 0 -10 8 -10 19 0
19 2 -1 21 -14 15 -14 16 0 16 9 0 16 5 16 11 0 5 -4 7 -10 4 -7 -4 -7 3 0 19
5 14 7 26 4 26 -4 0 4 9 17 21 13 11 17 17 9 13 -12 -7 -13 -5 -3 8 7 8 14 27
15 43 2 15 8 29 15 32 6 3 9 11 7 18 -3 7 4 20 16 28 15 10 19 20 14 29 -14
22 -13 40 1 34 18 -6 26 18 12 34 -9 10 -9 11 1 6 8 -5 12 0 12 14 0 12 5 18
10 15 12 -8 13 -3 1 28 -9 22 -7 24 12 20 18 -4 19 -3 7 6 -13 10 -13 11 0 11
13 0 13 1 0 10 -11 7 -11 10 -2 10 7 0 10 5 7 11 -4 5 1 20 12 31 12 15 13 19
3 14 -8 -4 -6 -1 4 8 10 8 23 13 29 9 6 -3 7 -1 3 6 -4 6 -11 9 -16 6 -5 -3
-12 -1 -15 5 -4 6 -3 10 2 9 19 -3 30 2 30 16 0 12 -3 12 -16 2 -14 -10 -14
-10 -3 5 8 10 10 23 6 30 -6 9 -3 9 9 -1 15 -12 17 -12 11 4 -6 14 -4 16 7 10
8 -4 11 -5 7 0 -4 4 -3 14 3 21 7 8 7 14 -1 19 -5 3 -10 12 -10 18 0 7 4 6 10
-3 7 -11 10 -7 10 19 0 19 3 31 7 28 3 -4 12 1 19 11 16 21 17 32 3 32 -5 0
-8 -4 -4 -9 3 -5 1 -12 -5 -16 -5 -3 -10 0 -10 7 0 20 17 41 28 35 5 -4 9 1 9
11 0 38 3 53 11 48 4 -2 8 4 8 14 0 16 -3 17 -16 7 -13 -10 -13 -10 -3 4 7 9
10 19 6 23 -4 4 0 4 8 1 17 -6 33 25 29 54 -1 7 3 10 9 7 5 -4 12 -2 15 3 4 5
1 13 -5 17 -8 5 -9 3 -4 -6 5 -8 4 -11 -3 -6 -13 8 -5 36 10 36 6 0 6 6 -1 14
-8 10 -9 16 -1 21 6 3 8 10 5 15 -3 5 5 7 17 5 22 -4 22 -4 4 10 -11 8 -14 15
-8 15 7 0 12 12 12 26 0 14 4 23 10 19 6 -3 10 -2 10 4 0 5 -6 12 -12 15 -7 4
-4 5 8 2 13 -2 21 2 21 11 0 8 -7 12 -16 8 -9 -3 -2 6 14 20 17 15 25 24 19
21 -7 -3 -14 1 -17 9 -4 9 -1 12 9 8 9 -3 14 0 12 8 -2 8 2 13 9 12 8 -2 10 4
6 14 -4 11 -8 13 -11 5 -2 -7 -8 -12 -14 -12 -7 0 -7 5 1 13 6 8 7 17 3 22 -4
4 4 2 18 -5 14 -7 22 -9 18 -5 -4 4 -3 16 2 26 7 11 7 20 0 24 -12 8 -8 38 8
57 6 8 8 19 4 23 -4 5 2 5 12 1 16 -5 17 -4 6 9 -10 12 -10 15 4 15 9 0 16 5
16 11 0 6 -8 8 -17 5 -16 -5 -16 -5 -2 6 9 7 22 24 29 38 l13 25 -24 -20 c-23
-20 -23 -20 1 11 14 17 30 29 35 26 6 -3 5 1 -1 9 -17 23 -9 70 15 91 13 10
18 18 12 18 -6 0 -11 5 -11 11 0 5 4 8 9 5 5 -3 14 1 21 9 11 13 10 14 -6 9
-14 -4 -13 -1 6 15 21 18 23 22 10 31 -8 5 -10 10 -5 10 6 0 16 9 23 21 8 12
9 18 3 14 -6 -3 -11 -1 -11 4 0 6 5 11 11 11 6 0 9 9 6 20 -4 17 -2 20 13 15
10 -3 22 0 26 6 4 8 3 9 -5 5 -6 -4 -19 0 -28 10 -16 16 -16 16 6 9 17 -5 21
-4 16 5 -4 7 -1 16 6 21 10 6 11 9 2 9 -7 0 -13 5 -13 11 0 6 7 8 16 5 15 -6
15 -4 0 20 -17 25 -17 25 2 15 16 -9 21 -7 25 10 5 17 3 18 -10 7 -14 -11 -15
-11 -5 8 6 12 8 25 4 29 -4 5 -2 5 4 2 7 -4 15 0 18 9 3 8 11 12 17 8 8 -4 9
-3 5 5 -4 6 -11 9 -16 6 -5 -3 -11 -1 -15 5 -3 6 4 10 17 10 13 0 18 4 13 8
-6 4 -11 19 -10 33 0 21 4 25 20 22 17 -4 17 -3 5 6 -13 10 -13 11 0 11 12 0
12 2 2 9 -10 6 -9 10 7 14 21 5 30 37 10 37 -5 0 -7 5 -4 10 4 6 10 8 15 5 5
-3 12 0 16 6 4 8 3 9 -4 5 -18 -11 -14 5 6 28 16 20 16 20 0 7 -10 -7 -18 -9
-18 -3 0 12 25 34 32 27 8 -8 3 29 -7 44 -5 10 -4 12 3 7 7 -4 20 -2 29 4 17
11 17 11 1 6 -10 -3 -18 -1 -18 4 0 6 4 10 8 10 9 0 11 9 14 60 1 21 6 29 15
26 9 -4 12 4 10 27 -2 26 2 32 16 31 18 -2 18 -1 0 19 -10 11 -12 17 -5 13 7
-4 12 -1 12 8 0 9 8 16 18 16 13 0 14 2 3 9 -11 7 -11 9 0 14 10 4 10 6 2 6
-19 1 -16 18 7 41 11 11 15 20 10 20 -6 0 -5 6 2 14 7 8 16 12 21 9 4 -2 7 1
7 6 0 6 -5 11 -12 11 -6 0 -3 7 8 15 19 15 19 15 -1 9 -19 -5 -19 -5 -2 9 14
12 16 20 7 42 -9 24 -8 26 7 21 16 -6 16 -6 0 12 -19 21 -23 37 -6 26 8 -5 8
-1 0 14 -6 11 -18 22 -27 26 -9 3 -14 12 -11 20 3 8 -3 22 -13 31 -11 10 -17
23 -13 29 3 6 2 8 -2 3 -5 -4 -20 0 -34 10 -24 15 -25 15 -12 0 9 -12 10 -17
2 -17 -7 0 -9 -4 -6 -10 3 -6 -1 -7 -9 -4 -9 3 -16 10 -16 16 0 5 5 6 12 2 7
-4 8 -3 4 4 -4 6 -14 8 -23 5 -11 -4 -14 -3 -9 5 5 8 0 12 -13 12 -11 0 -23
-5 -27 -12z m136 -43 c13 -14 19 -25 13 -25 -6 0 -13 7 -17 15 -3 8 -11 13
-18 11 -7 -1 -9 -1 -4 2 4 2 2 8 -5 13 -8 5 -9 9 -3 9 6 0 21 -11 34 -25z
m-650 -185 c-24 -15 -36 -11 -14 4 10 8 21 12 24 10 2 -3 -2 -9 -10 -14z
m-100 -30 c0 -5 -5 -10 -11 -10 -5 0 -7 5 -4 10 3 6 8 10 11 10 2 0 4 -4 4
-10z m-200 -75 c0 -2 -10 -9 -22 -15 -22 -11 -22 -10 -4 4 21 17 26 19 26 11z
m-100 -35 c0 -5 -5 -10 -11 -10 -5 0 -7 5 -4 10 3 6 8 10 11 10 2 0 4 -4 4
-10z m-73 -45 c0 -8 -4 -15 -9 -15 -10 0 -11 14 -1 23 9 10 10 9 10 -8z m993
-365 c0 -5 -4 -10 -10 -10 -5 0 -10 5 -10 10 0 6 5 10 10 10 6 0 10 -4 10 -10z
m-2053 -55 c4 -4 3 -5 -4 -1 -6 3 -14 2 -18 -4 -4 -6 -11 -8 -16 -4 -5 3 -7 9
-4 14 6 10 31 7 42 -5z m-225 -87 c-7 -7 -12 -8 -12 -2 0 14 12 26 19 19 2 -3
-1 -11 -7 -17z m-755 -296 c-7 -10 -13 -10 -15 -3 -2 6 -9 8 -14 5 -6 -4 -8
-3 -5 2 3 5 15 10 26 10 16 0 18 -3 8 -14z m-89 -43 c3 -11 2 -11 -7 1 -10 13
-12 13 -21 0 -5 -8 -10 -10 -10 -4 0 27 31 30 38 3z m-280 -114 c-3 -3 -9 2
-12 12 -6 14 -5 15 5 6 7 -7 10 -15 7 -18z m3095 -262 c-3 -7 -6 -13 -8 -13
-2 0 -5 6 -8 13 -3 8 1 14 8 14 7 0 11 -6 8 -14z m-3739 -61 c3 -5 -1 -9 -9
-9 -8 0 -12 4 -9 9 3 4 7 8 9 8 2 0 6 -4 9 -8z m36 -137 c0 -12 -19 -12 -23 0
-4 9 -1 12 9 8 7 -3 14 -7 14 -8z m220 -99 c0 -3 -4 -8 -10 -11 -5 -3 -10 -1
-10 4 0 6 5 11 10 11 6 0 10 -2 10 -4z m102 -68 c-8 -8 -9 -4 -5 13 4 13 8 18
11 10 2 -7 -1 -18 -6 -23z m3143 -288 c-3 -5 -12 -10 -18 -10 -7 0 -6 4 3 10
19 12 23 12 15 0z m-3452 -311 c-8 -8 -13 -7 -18 2 -5 8 -4 10 3 5 7 -4 12 -2
12 5 0 7 3 9 7 6 4 -4 2 -12 -4 -18z m3312 -79 c-3 -5 -12 -10 -18 -10 -7 0
-6 4 3 10 19 12 23 12 15 0z m-2115 -338 c0 -4 -9 -8 -19 -8 -11 0 -17 4 -15
8 3 4 12 8 20 8 8 0 14 -4 14 -8z m70 -47 c11 -13 10 -14 -4 -9 -9 3 -16 10
-16 15 0 13 6 11 20 -6z m1900 -29 c0 -3 -4 -8 -10 -11 -5 -3 -10 -1 -10 4 0
6 5 11 10 11 6 0 10 -2 10 -4z m-275 -767 c-4 -5 -12 -9 -18 -8 -9 0 -8 2 1 6
6 2 9 10 6 15 -4 7 -2 8 5 4 6 -4 9 -12 6 -17z m-870 -417 c-3 -3 -11 0 -18 7
-9 10 -8 11 6 5 10 -3 15 -9 12 -12z m652 -10 c-18 -20 -47 -25 -47 -9 0 5 7
6 15 3 9 -3 18 1 21 9 4 8 11 15 17 15 5 0 3 -8 -6 -18z"/>
<path d="M3675 4416 c-17 -12 -17 -13 3 -11 26 2 37 11 24 19 -5 3 -17 -1 -27
-8z"/>
<path d="M4567 4357 c-3 -8 0 -14 7 -14 7 0 13 6 13 14 0 7 -4 13 -8 13 -4 0
-9 -6 -12 -13z"/>
<path d="M3446 4313 c-6 -14 -5 -15 5 -6 7 7 10 15 7 18 -3 3 -9 -2 -12 -12z"/>
<path d="M3315 4281 c-3 -5 -2 -12 3 -15 5 -3 9 1 9 9 0 17 -3 19 -12 6z"/>
<path d="M3190 4225 c-11 -13 -10 -14 4 -9 9 3 16 10 16 15 0 13 -6 11 -20 -6z"/>
<path d="M3025 4161 c-3 -5 -2 -12 3 -15 5 -3 9 1 9 9 0 17 -3 19 -12 6z"/>
<path d="M1870 3706 c0 -2 7 -7 16 -10 8 -3 12 -2 9 4 -6 10 -25 14 -25 6z"/>
<path d="M1227 3443 c-4 -3 -7 -11 -7 -17 0 -6 5 -5 12 2 6 6 9 14 7 17 -3 3
-9 2 -12 -2z"/>
<path d="M1055 3380 c3 -5 8 -10 11 -10 2 0 4 5 4 10 0 6 -5 10 -11 10 -5 0
-7 -4 -4 -10z"/>
<path d="M4211 3376 c-7 -8 -8 -17 -3 -20 6 -3 13 1 16 10 9 23 2 28 -13 10z"/>
<path d="M830 3279 c0 -5 5 -7 10 -4 6 3 10 8 10 11 0 2 -4 4 -10 4 -5 0 -10
-5 -10 -11z"/>
<path d="M777 3263 c4 -9 10 -10 24 -2 24 13 24 14 -5 14 -14 0 -22 -5 -19
-12z"/>
<path d="M4125 3130 c-3 -5 -1 -10 4 -10 6 0 11 5 11 10 0 6 -2 10 -4 10 -3 0
-8 -4 -11 -10z"/>
<path d="M4005 2790 c-3 -6 1 -7 9 -4 18 7 21 14 7 14 -6 0 -13 -4 -16 -10z"/>
<path d="M790 2656 c0 -2 7 -7 16 -10 8 -3 12 -2 9 4 -6 10 -25 14 -25 6z"/>
<path d="M827 2564 c6 -15 23 -19 23 -5 0 5 -7 11 -14 14 -10 4 -13 1 -9 -9z"/>
<path d="M3810 2241 c0 -6 4 -12 8 -15 5 -3 9 1 9 9 0 8 -4 15 -9 15 -4 0 -8
-4 -8 -9z"/>
<path d="M666 1995 c4 -8 11 -15 16 -15 6 0 5 6 -2 15 -7 8 -14 15 -16 15 -2
0 -1 -7 2 -15z"/>
<path d="M3703 1929 c-2 -23 3 -25 10 -4 4 8 3 16 -1 19 -4 3 -9 -4 -9 -15z"/>
<path d="M894 1898 c-4 -7 -4 -10 1 -6 4 4 15 2 24 -5 14 -11 14 -10 2 6 -16
20 -18 21 -27 5z"/>
<path d="M969 1887 c8 -10 23 -23 33 -28 18 -10 18 -8 8 11 -6 12 -14 19 -17
16 -4 -3 -13 0 -22 7 -14 11 -14 10 -2 -6z"/>
<path d="M3666 1834 c-8 -22 -4 -25 11 -9 7 8 9 16 4 19 -5 3 -12 -1 -15 -10z"/>
<path d="M1197 1813 c-12 -11 -8 -23 9 -23 9 0 12 -5 8 -12 -4 -7 -3 -8 4 -4
9 5 9 13 2 27 -12 21 -14 22 -23 12z"/>
<path d="M1730 1446 c0 -2 7 -7 16 -10 8 -3 12 -2 9 4 -6 10 -25 14 -25 6z"/>
<path d="M3425 1160 c-3 -6 1 -7 9 -4 18 7 21 14 7 14 -6 0 -13 -4 -16 -10z"/>
<path d="M3325 881 c-3 -5 -2 -12 3 -15 5 -3 9 1 9 9 0 17 -3 19 -12 6z"/>
</g>
</svg>
